<svg xmlns="http://www.w3.org/2000/svg" width="980" height="560" viewBox="0 0 980 560" role="img" aria-label="Motore Vision AI con prodotti e rete neurale">
  <defs>
    <linearGradient id="bg" x1="0" y1="0" x2="1" y2="1">
      <stop offset="0" stop-color="#eff7ff"/>
      <stop offset="0.45" stop-color="#f8fbff"/>
      <stop offset="1" stop-color="#eafdf5"/>
    </linearGradient>
    <linearGradient id="blue" x1="0" y1="0" x2="1" y2="1">
      <stop offset="0" stop-color="#0d6efd"/>
      <stop offset="1" stop-color="#0f4fd9"/>
    </linearGradient>
    <linearGradient id="green" x1="0" y1="0" x2="1" y2="1">
      <stop offset="0" stop-color="#21d07a"/>
      <stop offset="1" stop-color="#0b9b62"/>
    </linearGradient>
    <linearGradient id="gold" x1="0" y1="0" x2="1" y2="1">
      <stop offset="0" stop-color="#ffd86b"/>
      <stop offset="1" stop-color="#f2a900"/>
    </linearGradient>
    <linearGradient id="glass" x1="0" y1="0" x2="1" y2="1">
      <stop offset="0" stop-color="#ffffff" stop-opacity="0.92"/>
      <stop offset="1" stop-color="#eef7ff" stop-opacity="0.78"/>
    </linearGradient>
    <filter id="shadow" x="-20%" y="-20%" width="140%" height="160%">
      <feDropShadow dx="0" dy="24" stdDeviation="28" flood-color="#103764" flood-opacity="0.17"/>
    </filter>
    <filter id="soft" x="-40%" y="-40%" width="180%" height="180%">
      <feGaussianBlur stdDeviation="18"/>
    </filter>
  </defs>
  <rect x="0" y="0" width="980" height="560" rx="54" fill="url(#bg)"/>
  <circle cx="160" cy="120" r="86" fill="#b7d8ff" opacity="0.32" filter="url(#soft)"/>
  <circle cx="815" cy="430" r="116" fill="#8df0c0" opacity="0.24" filter="url(#soft)"/>
  <g opacity="0.2" stroke="#0d6efd" stroke-width="2">
    <path d="M116 280 C260 150 352 470 490 284 S720 130 858 252" fill="none"/>
    <path d="M132 354 C300 232 370 408 512 334 S760 234 870 348" fill="none"/>
    <path d="M160 206 C310 112 426 214 530 198 S722 92 846 172" fill="none"/>
  </g>
  <g filter="url(#shadow)">
    <rect x="300" y="112" width="380" height="330" rx="44" fill="url(#glass)" stroke="#d6e7fb"/>
    <g transform="translate(362 154)">
      <rect x="0" y="38" width="256" height="156" rx="34" fill="#061b38" opacity="0.94"/>
      <rect x="18" y="56" width="220" height="120" rx="24" fill="#0b2d5a"/>
      <path d="M40 140 C84 78 126 162 164 103 C188 66 210 92 226 70" fill="none" stroke="#32d296" stroke-width="6" stroke-linecap="round"/>
      <circle cx="86" cy="116" r="12" fill="#0d6efd"/>
      <circle cx="162" cy="102" r="12" fill="#32d296"/>
      <circle cx="214" cy="72" r="10" fill="#ffd45c"/>
      <rect x="91" y="207" width="74" height="18" rx="9" fill="#0d6efd" opacity="0.9"/>
    </g>
    <g transform="translate(426 166)">
      <circle cx="64" cy="64" r="54" fill="#ffffff" opacity="0.12"/>
      <path d="M64 4 C92 4 114 28 114 58 C114 93 91 117 64 124 C37 117 14 93 14 58 C14 28 36 4 64 4Z" fill="none" stroke="#ffffff" stroke-width="5" opacity="0.9"/>
      <path d="M64 23 L64 105 M28 59 L100 59 M39 33 L89 86 M89 33 L39 86" stroke="#ffffff" stroke-width="5" stroke-linecap="round" opacity="0.72"/>
    </g>
  </g>
  <g filter="url(#shadow)">
    <g transform="translate(105 205)">
      <rect x="0" y="0" width="145" height="230" rx="38" fill="#ffffff" stroke="#d6e7fb"/>
      <path d="M54 20 h37 c20 0 36 16 36 36v122c0 21-17 38-38 38H56c-21 0-38-17-38-38V56c0-20 16-36 36-36Z" fill="url(#blue)" opacity="0.95"/>
      <rect x="38" y="62" width="70" height="62" rx="18" fill="#ffffff" opacity="0.86"/>
      <path d="M44 142h58" stroke="#fff" stroke-width="10" stroke-linecap="round" opacity="0.82"/>
      <circle cx="72" cy="174" r="18" fill="#fff" opacity="0.9"/>
    </g>
    <g transform="translate(730 176)">
      <rect x="0" y="0" width="150" height="196" rx="34" fill="#ffffff" stroke="#d6e7fb"/>
      <rect x="28" y="24" width="94" height="148" rx="20" fill="#f9fcff" stroke="#d8e9fb"/>
      <rect x="46" y="48" width="58" height="58" rx="14" fill="url(#green)"/>
      <rect x="48" y="120" width="54" height="12" rx="6" fill="#0d6efd" opacity="0.78"/>
      <rect x="48" y="140" width="70" height="10" rx="5" fill="#0d6efd" opacity="0.35"/>
    </g>
    <g transform="translate(710 370)">
      <rect x="0" y="0" width="190" height="98" rx="28" fill="#ffffff" stroke="#d6e7fb"/>
      <circle cx="48" cy="49" r="30" fill="url(#gold)"/>
      <rect x="88" y="28" width="70" height="14" rx="7" fill="#0d6efd" opacity="0.75"/>
      <rect x="88" y="55" width="82" height="12" rx="6" fill="#33c983" opacity="0.7"/>
    </g>
  </g>
  <g opacity="0.9">
    <circle cx="288" cy="180" r="7" fill="#0d6efd"/>
    <circle cx="245" cy="292" r="7" fill="#32d296"/>
    <circle cx="703" cy="170" r="7" fill="#0d6efd"/>
    <circle cx="704" cy="338" r="7" fill="#32d296"/>
    <circle cx="610" cy="452" r="7" fill="#ffd45c"/>
    <path d="M245 292 L300 282 M288 180 L330 208 M680 196 L703 170 M680 318 L704 338 M598 428 L610 452" stroke="#0d6efd" stroke-width="3" stroke-linecap="round" opacity="0.55"/>
  </g>
  <g transform="translate(90 70)">
    <text x="0" y="0" font-family="Inter, Arial, sans-serif" font-size="18" letter-spacing="5" font-weight="900" fill="#0d6efd">VISION CORE</text>
    <text x="0" y="38" font-family="Inter, Arial, sans-serif" font-size="46" letter-spacing="3" font-weight="1000" fill="#071b34">1.000.000</text>
    <text x="0" y="70" font-family="Inter, Arial, sans-serif" font-size="18" letter-spacing="2" font-weight="900" fill="#455c78">PROFILI PRODOTTO</text>
  </g>
</svg>
