<svg xmlns="http://www.w3.org/2000/svg" width="420" height="180" viewBox="0 0 420 180" fill="none">
<defs>
  <linearGradient id="bg" x1="20" y1="18" x2="380" y2="170" gradientUnits="userSpaceOnUse">
    <stop stop-color="#60A5FA"/>
    <stop offset="1" stop-color="#22D3EE"/>
  </linearGradient>
  <linearGradient id="ring" x1="140" y1="20" x2="290" y2="140" gradientUnits="userSpaceOnUse">
    <stop stop-color="#93C5FD"/>
    <stop offset="1" stop-color="#38BDF8"/>
  </linearGradient>
</defs>
<rect x="6" y="6" width="408" height="168" rx="32" fill="#081B39"/>
<circle cx="302" cy="76" r="46" stroke="url(#ring)" stroke-width="10" opacity=".95"/>
<circle cx="302" cy="76" r="68" stroke="#5AB8FF" stroke-opacity=".26" stroke-width="3"/>
<circle cx="302" cy="76" r="88" stroke="#5AB8FF" stroke-opacity=".12" stroke-width="2"/>
<circle cx="264" cy="118" r="12" fill="#5B8CFF"/>
<circle cx="300" cy="136" r="14" fill="#FACC15"/>
<circle cx="332" cy="110" r="10" fill="#F97316"/>
<circle cx="274" cy="146" r="8" fill="#84CC16"/>
<rect x="40" y="42" width="112" height="92" rx="22" fill="url(#bg)" opacity=".18"/>
<path d="M96 56c-15.5 0-28 12.5-28 28 0 2.9.45 5.74 1.3 8.38A21.33 21.33 0 0 0 58 110.5C58 122.37 67.63 132 79.5 132H88v10h-8.5a8 8 0 1 0 0 16h33a8 8 0 1 0 0-16H104v-10h8.5c11.87 0 21.5-9.63 21.5-21.5 0-7.79-4.17-14.6-10.38-18.38.63-2.31.96-4.74.96-7.12 0-15.5-12.57-28-28.08-28Z" fill="url(#bg)"/>
<path d="M84 92c0-8.84 7.16-16 16-16m-24 36h48M86 142h20" stroke="#EAF6FF" stroke-width="6" stroke-linecap="round"/>
<circle cx="76" cy="94" r="5" fill="#EAF6FF"/><circle cx="120" cy="94" r="5" fill="#EAF6FF"/>
</svg>